<svg xmlns="http://www.w3.org/2000/svg" viewBox="0 0 1200 630" width="1200" height="630" role="img" aria-label="Niche Datasets — 20 curated developer and AI datasets, free CSV and JSON samples">
  <defs>
    <linearGradient id="g" x1="0" y1="0" x2="1" y2="1">
      <stop offset="0%" stop-color="#0b1320"/>
      <stop offset="100%" stop-color="#1a2a45"/>
    </linearGradient>
    <linearGradient id="accent" x1="0" y1="0" x2="1" y2="0">
      <stop offset="0%" stop-color="#4ade80"/>
      <stop offset="100%" stop-color="#22d3ee"/>
    </linearGradient>
  </defs>
  <rect width="1200" height="630" fill="url(#g)"/>
  <rect x="60" y="60" width="120" height="6" fill="url(#accent)" rx="3"/>
  <text x="60" y="160" font-family="-apple-system, Segoe UI, Helvetica, Arial, sans-serif" font-size="78" font-weight="800" fill="#ffffff">Niche Datasets</text>
  <text x="60" y="230" font-family="-apple-system, Segoe UI, Helvetica, Arial, sans-serif" font-size="36" font-weight="500" fill="#94a3b8">20 curated developer &amp; AI datasets</text>
  <text x="60" y="282" font-family="-apple-system, Segoe UI, Helvetica, Arial, sans-serif" font-size="32" font-weight="500" fill="#94a3b8">~55,000 records · CSV + JSON · Schema-validated</text>
  <g transform="translate(60, 360)" font-family="-apple-system, Segoe UI, Helvetica, Arial, sans-serif" font-size="26" font-weight="600">
    <rect x="0" y="0" width="220" height="48" fill="#1e3a5f" rx="6"/>
    <text x="110" y="32" text-anchor="middle" fill="#e2e8f0">npm Packages</text>
    <rect x="232" y="0" width="240" height="48" fill="#1e3a5f" rx="6"/>
    <text x="352" y="32" text-anchor="middle" fill="#e2e8f0">MCP Servers</text>
    <rect x="484" y="0" width="280" height="48" fill="#1e3a5f" rx="6"/>
    <text x="624" y="32" text-anchor="middle" fill="#e2e8f0">HuggingFace Models</text>
    <rect x="776" y="0" width="200" height="48" fill="#1e3a5f" rx="6"/>
    <text x="876" y="32" text-anchor="middle" fill="#e2e8f0">Homebrew</text>
  </g>
  <g transform="translate(60, 420)" font-family="-apple-system, Segoe UI, Helvetica, Arial, sans-serif" font-size="26" font-weight="600">
    <rect x="0" y="0" width="260" height="48" fill="#1e3a5f" rx="6"/>
    <text x="130" y="32" text-anchor="middle" fill="#e2e8f0">VS Code Extensions</text>
    <rect x="272" y="0" width="220" height="48" fill="#1e3a5f" rx="6"/>
    <text x="382" y="32" text-anchor="middle" fill="#e2e8f0">Public APIs</text>
    <rect x="504" y="0" width="180" height="48" fill="#1e3a5f" rx="6"/>
    <text x="594" y="32" text-anchor="middle" fill="#e2e8f0">AI Tools</text>
    <rect x="696" y="0" width="200" height="48" fill="#1e3a5f" rx="6"/>
    <text x="796" y="32" text-anchor="middle" fill="#e2e8f0">+ 13 more</text>
  </g>
  <text x="60" y="560" font-family="-apple-system, Segoe UI, Helvetica, Arial, sans-serif" font-size="28" font-weight="600" fill="url(#accent)">futdevpro.github.io/niche-datasets-free</text>
  <text x="60" y="595" font-family="-apple-system, Segoe UI, Helvetica, Arial, sans-serif" font-size="20" font-weight="400" fill="#64748b">Free samples · Full datasets from $7 on Gumroad</text>
</svg>
